<svg width="45" height="22" viewBox="0 0 45 22" fill="none" xmlns="http://www.w3.org/2000/svg">
<path d="M1.37141 0.672049C2.43359 -0.157137 4.11385 -0.102921 5.12436 0.793144L23.944 17.4814C24.9546 18.3775 24.9127 19.7761 23.8505 20.6052C22.7883 21.4344 21.108 21.3802 20.0975 20.4841L1.27784 3.79589C0.267333 2.89983 0.309223 1.50123 1.37141 0.672049Z" fill="#ED208B"/>
<path d="M43.5008 2.15257C42.4903 1.25651 40.8101 1.20229 39.7479 2.03148L20.7539 16.859C19.6917 17.6882 19.6498 19.0868 20.6603 19.9828C21.6708 20.8789 23.3511 20.9331 24.4133 20.1039L43.4073 5.27642C44.4695 4.44723 44.5113 3.04864 43.5008 2.15257Z" fill="#ED208B"/>
</svg>
