<svg width="37" height="37" viewBox="0 0 37 37" fill="none" xmlns="http://www.w3.org/2000/svg">
<path d="M18.5 0C8.28273 0 0 8.28273 0 18.5C0 28.7173 8.28273 37 18.5 37C28.7173 37 37 28.7173 37 18.5C37 8.28273 28.7173 0 18.5 0ZM18.856 15.7099C18.8621 15.7102 18.8678 15.7114 18.874 15.7117C18.8108 15.4406 18.7781 15.1579 18.7781 14.8675C18.7781 12.8219 20.4366 11.1633 22.4826 11.1633C23.5479 11.1633 24.5105 11.6132 25.1863 12.3331C25.8801 12.1966 26.5365 11.9592 27.1468 11.645C27.2755 11.5825 27.4045 11.5204 27.5313 11.4517C27.3116 12.1262 26.8994 12.71 26.3648 13.1523C26.22 13.2662 26.0713 13.3762 25.9077 13.4662C25.9188 13.4649 25.9296 13.4624 25.9407 13.4611C25.9298 13.4678 25.9208 13.477 25.9098 13.4836C26.5169 13.411 27.0992 13.2631 27.6522 13.0542C27.7761 13.0114 27.8999 12.9681 28.0227 12.9204C27.5282 13.6545 26.9059 14.3003 26.1889 14.818C26.196 14.9768 26.1996 15.1364 26.1996 15.2972C26.1996 20.1922 22.4737 25.8366 15.6601 25.8366C13.5682 25.8366 11.6211 25.2234 9.98176 24.1724C10.2715 24.2066 10.5665 24.2241 10.8655 24.2241C12.2484 24.2241 13.5403 23.8433 14.651 23.1878C14.9307 23.0266 15.2044 22.8526 15.4656 22.6556C15.4586 22.6554 15.4521 22.6537 15.445 22.6535C15.4518 22.6483 15.4592 22.6437 15.4659 22.6384C14.0624 22.6126 12.8511 21.8046 12.2448 20.6333C12.1544 20.4534 12.0771 20.265 12.0161 20.0674C12.2391 20.1093 12.4675 20.1323 12.7026 20.1323C12.9477 20.1323 13.1844 20.1008 13.416 20.0554C13.5025 20.0433 13.5898 20.0332 13.6751 20.0192C13.6638 20.0169 13.6539 20.0119 13.6427 20.0096C13.6544 20.0065 13.6669 20.0055 13.6785 20.0023C11.984 19.662 10.707 18.1648 10.707 16.3701C10.707 16.356 10.7072 16.3421 10.7073 16.3282L10.709 16.3242C11.108 16.5456 11.554 16.6922 12.0264 16.7535C12.1427 16.7729 12.2592 16.7908 12.3756 16.801C12.3677 16.7956 12.3608 16.7891 12.3529 16.7838C12.3639 16.7842 12.3744 16.7864 12.3852 16.7867C11.3913 16.1225 10.7374 14.9885 10.7374 13.7034C10.7374 13.1151 10.881 12.5626 11.1252 12.0686C11.1642 11.9943 11.1988 11.9184 11.2435 11.8464C12.8847 13.857 15.2554 15.2408 17.9498 15.6151C18.2505 15.6588 18.552 15.6978 18.857 15.7154C18.8566 15.7137 18.8564 15.7117 18.856 15.7099Z" fill="#ED208B"/>
</svg>
