<svg width="37" height="37" viewBox="0 0 37 37" fill="none" xmlns="http://www.w3.org/2000/svg">
<g clip-path="url(#clip0_6111_620)">
<path d="M16.0358 22.0627L22.0916 18.5072L16.0358 14.9518V22.0627Z" fill="#ED208B"/>
<path d="M18.5 0C8.28164 0 0 8.28164 0 18.5C0 28.7184 8.28164 37 18.5 37C28.7184 37 37 28.7184 37 18.5C37 8.28164 28.7184 0 18.5 0ZM27.75 21.8098C27.75 24.9967 24.5631 24.9967 24.5631 24.9967H12.4369C9.25 24.9967 9.25 21.8098 9.25 21.8098V15.1975C9.25 12.0105 12.4369 12.0105 12.4369 12.0105H24.5631C27.75 12.0105 27.75 15.1975 27.75 15.1975V21.8098Z" fill="#ED208B"/>
</g>
<defs>
<clipPath id="clip0_6111_620">
<rect width="37" height="37" fill="white"/>
</clipPath>
</defs>
</svg>
